<svg viewBox="5 4 38 38" xmlns="http://www.w3.org/2000/svg">
  <path d="M16.4877 38.7812H16.4906H19.4942H19.4975C20.4261 38.7601 20.416 37.393 19.497 37.375H19.4942H16.4906H16.4882C14.6753 37.4056 13.6927 35.1147 14.954 33.8156L14.9582 33.8111C15.4708 33.235 16.2655 33.1055 17.044 33.156L17.0531 33.1563L18.7406 33.1562C19.9038 33.1562 20.85 34.1024 20.85 35.2656C20.85 37.2044 22.4269 38.7812 24.3656 38.7812H26.0531H31.1156C32.0508 38.7812 32.9336 38.4173 33.605 37.753C35.5988 35.8338 34.4777 32.3022 31.8187 31.8218V24.0156C31.8187 21.3082 29.7398 19.0828 27.0951 18.8398C27.9266 18.0016 28.4437 16.8504 28.4437 15.5781V12.7656C28.4437 11.3792 27.4836 10.2137 26.1937 9.89744V9.39062C26.1937 8.07206 25.1216 7 23.8031 7C22.4846 7 21.4124 8.07206 21.4124 9.39062V9.89744C20.1226 10.2137 19.1624 11.3792 19.1624 12.7656V15.5781C19.1624 16.8504 19.6796 18.0016 20.5111 18.8398C17.8664 19.0828 15.7874 21.3082 15.7874 24.0156V31.8253C11.7127 32.6983 12.2408 38.6916 16.4877 38.7812ZM17.1937 31.7499V28.6562H21.5531C24.4224 28.6562 26.7562 26.3224 26.7562 23.4531V22.3281C26.7562 21.9395 26.4416 21.625 26.0531 21.625C25.6645 21.625 25.3499 21.9395 25.3499 22.3281V23.4531L25.35 23.454C25.3647 25.7336 23.36 27.4189 21.1312 27.2615L21.1313 24.5781L21.1312 24.576C21.1279 24.3535 21.0408 24.1767 20.9046 24.0569C20.7709 23.9393 20.5975 23.8832 20.4284 23.8831C20.2593 23.883 20.0858 23.9389 19.9519 24.0565C19.8156 24.1763 19.7285 24.3531 19.725 24.576L19.7249 24.5781V27.25H17.1937V24.0156C17.1937 21.9224 18.8974 20.2188 20.9906 20.2188H26.6156C28.7088 20.2188 30.4124 21.9224 30.4124 24.0156V31.7501C29.5292 31.7506 26.0366 31.7503 22.841 31.7501C20.2382 31.7498 17.8322 31.7496 17.1937 31.7499ZM32.6135 36.7559L32.6125 36.757C32.209 37.1558 31.6781 37.375 31.1156 37.375H24.3656C23.2024 37.375 22.2562 36.4289 22.2562 35.2656C22.2562 34.4734 21.9906 33.7438 21.547 33.1562H31.1156H31.1183C32.9549 33.1205 33.9303 35.4813 32.6135 36.7559ZM22.8187 9.8125V9.39253C22.8547 8.09418 24.7517 8.09435 24.7874 9.39254V9.8125H22.8187ZM22.1156 11.2188H25.4906C26.2961 11.2188 26.9599 11.8378 27.0311 12.625H26.5189C25.5419 12.625 24.5826 12.9485 23.8031 13.5272C23.0236 12.9485 22.0643 12.625 21.0873 12.625H20.5751C20.6463 11.8378 21.3101 11.2188 22.1156 11.2188ZM27.0374 15.5757C26.8834 19.8581 20.7224 19.8574 20.5687 15.5757V14.0312H21.0873C21.913 14.0312 22.722 14.3663 23.306 14.9503C23.4432 15.0875 23.6234 15.1562 23.8031 15.1562C23.9828 15.1562 24.163 15.0875 24.3002 14.9503C24.8842 14.3663 25.6932 14.0312 26.5189 14.0312H27.0374V15.5757Z" fill="black" stroke="black" stroke-width="0.28125"/>
</svg>
